<mxfile host="Electron" agent="Mozilla/5.0 (Windows NT 10.0; Win64; x64) AppleWebKit/537.36 (KHTML, like Gecko) draw.io/28.1.2 Chrome/138.0.7204.243 Electron/37.4.0 Safari/537.36" version="28.1.2">
  <diagram name="Seite-1" id="EKHTXoD699ClFIsjAtif">
    <mxGraphModel dx="1042" dy="1891" grid="1" gridSize="10" guides="1" tooltips="1" connect="1" arrows="1" fold="1" page="1" pageScale="1" pageWidth="827" pageHeight="1169" math="0" shadow="0">
      <root>
        <mxCell id="0" />
        <mxCell id="1" parent="0" />
        <mxCell id="EXqGPbmyWG-ObtKtbZWH-1" value="" style="rounded=0;whiteSpace=wrap;html=1;" vertex="1" parent="1">
          <mxGeometry x="40" y="-960" width="240" height="160" as="geometry" />
        </mxCell>
        <mxCell id="EXqGPbmyWG-ObtKtbZWH-2" value="WikiBot" style="text;html=1;align=center;verticalAlign=middle;whiteSpace=wrap;rounded=0;" vertex="1" parent="1">
          <mxGeometry x="130" y="-960" width="60" height="30" as="geometry" />
        </mxCell>
        <mxCell id="EXqGPbmyWG-ObtKtbZWH-3" value="BotFactory" style="rounded=0;whiteSpace=wrap;html=1;" vertex="1" parent="1">
          <mxGeometry x="55" y="-1060" width="120" height="60" as="geometry" />
        </mxCell>
        <mxCell id="EXqGPbmyWG-ObtKtbZWH-7" style="edgeStyle=orthogonalEdgeStyle;rounded=0;orthogonalLoop=1;jettySize=auto;html=1;entryX=0.5;entryY=1;entryDx=0;entryDy=0;endArrow=open;endFill=0;startArrow=open;startFill=0;dashed=1;" edge="1" parent="1" source="EXqGPbmyWG-ObtKtbZWH-4" target="EXqGPbmyWG-ObtKtbZWH-5">
          <mxGeometry relative="1" as="geometry" />
        </mxCell>
        <mxCell id="EXqGPbmyWG-ObtKtbZWH-4" value="BotController" style="rounded=0;whiteSpace=wrap;html=1;" vertex="1" parent="1">
          <mxGeometry x="55" y="-760" width="120" height="60" as="geometry" />
        </mxCell>
        <mxCell id="EXqGPbmyWG-ObtKtbZWH-5" value="Bot" style="rounded=0;whiteSpace=wrap;html=1;" vertex="1" parent="1">
          <mxGeometry x="55" y="-905" width="120" height="60" as="geometry" />
        </mxCell>
        <mxCell id="EXqGPbmyWG-ObtKtbZWH-6" style="edgeStyle=orthogonalEdgeStyle;rounded=0;orthogonalLoop=1;jettySize=auto;html=1;entryX=0.5;entryY=0;entryDx=0;entryDy=0;dashed=1;endArrow=open;endFill=0;" edge="1" parent="1" source="EXqGPbmyWG-ObtKtbZWH-3" target="EXqGPbmyWG-ObtKtbZWH-5">
          <mxGeometry relative="1" as="geometry">
            <mxPoint x="100" y="-910" as="targetPoint" />
          </mxGeometry>
        </mxCell>
      </root>
    </mxGraphModel>
  </diagram>
</mxfile>
